<svg width="30" height="27" viewBox="0 0 30 27" fill="none" xmlns="http://www.w3.org/2000/svg">
<path d="M1.53125 23.1469V6.72189C1.53125 6.42189 1.60938 6.14064 1.76563 5.87814C1.92188 5.61564 2.14583 5.40001 2.4375 5.23126L7.6875 2.16564C8.02083 1.95939 8.375 1.85626 8.75 1.85626C9.125 1.85626 9.47917 1.95939 9.8125 2.16564L15.0625 5.23126C15.3542 5.40001 15.5781 5.61564 15.7344 5.87814C15.8906 6.14064 15.9688 6.42189 15.9688 6.72189V7.45314H26.5C27.0417 7.45314 27.5052 7.62657 27.8906 7.97345C28.276 8.32032 28.4688 8.73751 28.4688 9.22501V23.1469C28.4688 23.6344 28.276 24.0516 27.8906 24.3984C27.5052 24.7453 27.0417 24.9188 26.5 24.9188H3.5C2.95833 24.9188 2.49479 24.7453 2.10938 24.3984C1.72396 24.0516 1.53125 23.6344 1.53125 23.1469ZM5 21.7969H7.5V19.5469H5V21.7969ZM5 17.2969H7.5V15.0469H5V17.2969ZM5 12.7969H7.5V10.5469H5V12.7969ZM5 8.29689H7.5V6.04689H5V8.29689ZM10 8.29689H12.5V6.04689H10V8.29689ZM10 21.7969H25V10.5469H10V21.7969ZM18.75 12.7969H21.25C21.6042 12.7969 21.901 12.9047 22.1406 13.1203C22.3802 13.3359 22.5 13.6031 22.5 13.9219C22.5 14.2406 22.3802 14.5078 22.1406 14.7234C21.901 14.9391 21.6042 15.0469 21.25 15.0469H18.75C18.3958 15.0469 18.099 14.9391 17.8594 14.7234C17.6198 14.5078 17.5 14.2406 17.5 13.9219C17.5 13.6031 17.6198 13.3359 17.8594 13.1203C18.099 12.9047 18.3958 12.7969 18.75 12.7969ZM18.75 17.2969H21.25C21.6042 17.2969 21.901 17.4047 22.1406 17.6203C22.3802 17.8359 22.5 18.1031 22.5 18.4219C22.5 18.7406 22.3802 19.0078 22.1406 19.2234C21.901 19.4391 21.6042 19.5469 21.25 19.5469H18.75C18.3958 19.5469 18.099 19.4391 17.8594 19.2234C17.6198 19.0078 17.5 18.7406 17.5 18.4219C17.5 18.1031 17.6198 17.8359 17.8594 17.6203C18.099 17.4047 18.3958 17.2969 18.75 17.2969ZM15 13.9219C15 14.2406 14.8802 14.5078 14.6406 14.7234C14.401 14.9391 14.1042 15.0469 13.75 15.0469C13.3958 15.0469 13.099 14.9391 12.8594 14.7234C12.6198 14.5078 12.5 14.2406 12.5 13.9219C12.5 13.6031 12.6198 13.3359 12.8594 13.1203C13.099 12.9047 13.3958 12.7969 13.75 12.7969C14.1042 12.7969 14.401 12.9047 14.6406 13.1203C14.8802 13.3359 15 13.6031 15 13.9219ZM13.75 19.5469C13.3958 19.5469 13.099 19.4391 12.8594 19.2234C12.6198 19.0078 12.5 18.7406 12.5 18.4219C12.5 18.1031 12.6198 17.8359 12.8594 17.6203C13.099 17.4047 13.3958 17.2969 13.75 17.2969C14.1042 17.2969 14.401 17.4047 14.6406 17.6203C14.8802 17.8359 15 18.1031 15 18.4219C15 18.7406 14.8802 19.0078 14.6406 19.2234C14.401 19.4391 14.1042 19.5469 13.75 19.5469Z" fill="#416F8C"/>
</svg>
