<svg width="30" height="27" viewBox="0 0 30 27" fill="none" xmlns="http://www.w3.org/2000/svg">
<path d="M7.90625 20.5875C7.26042 20.2687 6.75 19.8281 6.375 19.2656C6 18.7031 5.8125 18.0937 5.8125 17.4375V12.825L3.5 11.7C3.13979 11.5239 2.87792 11.3038 2.71438 11.0396C2.55063 10.7754 2.46875 10.482 2.46875 10.1593C2.46875 9.83643 2.55208 9.53437 2.71875 9.25312C2.88542 8.97187 3.14583 8.74687 3.5 8.57812L13.125 3.85312C13.4167 3.70312 13.7198 3.59531 14.0344 3.52968C14.3492 3.46406 14.6721 3.43124 15.0031 3.43124C15.3344 3.43124 15.6562 3.46406 15.9688 3.52968C16.2812 3.59531 16.5833 3.70312 16.875 3.85312L28.625 9.61874C28.9523 9.77099 29.206 9.99187 29.3862 10.2814C29.5662 10.5709 29.6562 10.875 29.6562 11.1937V18C29.6562 18.4382 29.4916 18.8056 29.1622 19.1022C28.8328 19.3987 28.4246 19.5469 27.9375 19.5469C27.4583 19.5469 27.0469 19.3987 26.7031 19.1022C26.3594 18.8056 26.1875 18.4382 26.1875 18V11.8406L24.1875 12.825V17.4375C24.1875 18.0937 24 18.7031 23.625 19.2656C23.25 19.8281 22.7396 20.2687 22.0938 20.5875L16.8438 23.0906C16.5521 23.2406 16.25 23.3484 15.9375 23.4141C15.625 23.4797 15.3125 23.5125 15 23.5125C14.6875 23.5125 14.375 23.4797 14.0625 23.4141C13.75 23.3484 13.4479 23.2406 13.1562 23.0906L7.90625 20.5875ZM15 13.725L22.4062 10.125L15 6.52499L7.59375 10.125L15 13.725ZM15 20.475L20.7188 17.6906V14.5125L16.875 16.3969C16.5833 16.5469 16.2812 16.6547 15.9688 16.7203C15.6562 16.7859 15.3333 16.8187 15 16.8187C14.6667 16.8187 14.3438 16.7859 14.0312 16.7203C13.7188 16.6547 13.4167 16.5469 13.125 16.3969L9.28125 14.5125V17.6906L15 20.475Z" fill="#416F8C"/>
</svg>
