<svg width="24" height="24" viewBox="0 0 24 24" fill="none" xmlns="http://www.w3.org/2000/svg">
<path d="M9.55001 14.3L17.575 6.27499C17.8917 5.95832 18.2667 5.79999 18.7 5.79999C19.1333 5.79999 19.5083 5.95832 19.825 6.27499C20.1417 6.59165 20.3 6.96665 20.3 7.39999C20.3 7.83332 20.1417 8.20832 19.825 8.52499L10.675 17.675C10.3583 17.9917 9.98335 18.15 9.55001 18.15C9.11668 18.15 8.74168 17.9917 8.42501 17.675L4.17501 13.425C3.85835 13.1083 3.70001 12.7333 3.70001 12.3C3.70001 11.8667 3.85835 11.4917 4.17501 11.175C4.49168 10.8583 4.86668 10.7 5.30001 10.7C5.73335 10.7 6.10835 10.8583 6.42501 11.175L9.55001 14.3Z" fill="#416F8C"/>
</svg>
