<svg width="24" height="24" viewBox="0 0 24 24" fill="none" xmlns="http://www.w3.org/2000/svg">
<path d="M4.30002 20.85C3.41669 20.85 2.67086 20.5459 2.06252 19.9375C1.45419 19.3292 1.15002 18.5834 1.15002 17.7V6.30002C1.15002 5.41669 1.45419 4.67086 2.06252 4.06252C2.67086 3.45419 3.41669 3.15002 4.30002 3.15002H19.7C20.5834 3.15002 21.3292 3.45419 21.9375 4.06252C22.5459 4.67086 22.85 5.41669 22.85 6.30002V17.7C22.85 18.5834 22.5459 19.3292 21.9375 19.9375C21.3292 20.5459 20.5834 20.85 19.7 20.85H4.30002ZM19.7 9.07502L12.85 13.525C12.7199 13.6084 12.5831 13.6709 12.4398 13.7125C12.2966 13.7542 12.15 13.775 12 13.775C11.85 13.775 11.7034 13.7542 11.5603 13.7125C11.4169 13.6709 11.2802 13.6084 11.15 13.525L4.30002 9.07502V17.7H19.7V9.07502ZM12 11.3L19.7 6.30002H4.30002L12 11.3ZM4.30002 9.42502V7.43427V7.47078V6.30002V7.47502V7.42502V9.42502Z" fill="#416F8C"/>
</svg>
