<svg width="30" height="27" viewBox="0 0 30 27" fill="none" xmlns="http://www.w3.org/2000/svg">
<path d="M4.99999 14.7938C5.27082 14.2688 5.67707 13.8516 6.21874 13.5422C6.7604 13.2328 7.35415 13.0781 7.99999 13.0781C8.85415 13.0781 9.60415 13.3266 10.25 13.8235C10.8958 14.3203 11.2708 14.9531 11.375 15.7219L13.7187 8.24064C14.0729 7.20939 14.7188 6.36095 15.6565 5.69532C16.5943 5.0297 17.6567 4.69689 18.8437 4.69689C20.0267 4.69689 21.0828 5.01564 22.0122 5.65314C22.9415 6.29064 23.5833 7.11564 23.9375 8.12814L28.8125 21.15C29.0208 21.7125 28.9269 22.2375 28.5306 22.725C28.1344 23.2125 27.6033 23.4563 26.9375 23.4563C26.5312 23.4563 26.1588 23.3484 25.8203 23.1328C25.4818 22.9172 25.2396 22.6219 25.0937 22.2469L20.25 9.25314C20.1458 8.95314 19.9698 8.7047 19.7219 8.50782C19.4739 8.31095 19.1823 8.21251 18.8469 8.21251C18.5114 8.21251 18.2239 8.31095 17.9844 8.50782C17.7448 8.7047 17.5729 8.94376 17.4687 9.22501L14.7812 17.6344C14.5502 18.307 14.1331 18.8595 13.53 19.2921C12.9267 19.7245 12.2303 19.9406 11.4409 19.9406C10.7303 19.9406 10.0833 19.7578 9.49999 19.3922C8.91665 19.0266 8.47915 18.5531 8.18749 17.9719L7.93749 17.2125L5.24999 22.4719C5.08749 22.7702 4.84374 23.0088 4.51874 23.1877C4.19374 23.3667 3.84374 23.4563 3.46874 23.4563C2.73957 23.4563 2.19269 23.1844 1.82811 22.6406C1.46353 22.0969 1.42707 21.525 1.71874 20.925L4.99999 14.7938ZM7.18749 11.5875C5.93749 11.5875 4.87499 11.1985 3.99999 10.4203C3.12499 9.6422 2.68749 8.69064 2.68749 7.56564C2.68749 6.44851 3.12499 5.49892 3.99999 4.71686C4.87499 3.93479 5.93749 3.54376 7.18749 3.54376C8.43749 3.54376 9.48957 3.93479 10.3437 4.71686C11.1979 5.49892 11.625 6.44851 11.625 7.56564C11.625 8.69064 11.1979 9.6422 10.3437 10.4203C9.48957 11.1985 8.43749 11.5875 7.18749 11.5875ZM7.18874 8.32501C7.41853 8.32501 7.61124 8.25507 7.76686 8.1152C7.92228 7.97514 7.99999 7.8017 7.99999 7.59489C7.99999 7.38789 7.92228 7.2047 7.76686 7.04532C7.61124 6.88595 7.41853 6.80626 7.18874 6.80626C6.95874 6.80626 6.7552 6.88595 6.57811 7.04532C6.40103 7.2047 6.31249 7.38789 6.31249 7.59489C6.31249 7.8017 6.40103 7.97514 6.57811 8.1152C6.7552 8.25507 6.95874 8.32501 7.18874 8.32501Z" fill="#416F8C"/>
</svg>
