<svg width="24" height="24" viewBox="0 0 24 24" fill="none" xmlns="http://www.w3.org/2000/svg">
<path d="M12 11.575C10.65 11.575 9.50419 11.1042 8.56252 10.1625C7.62086 9.22086 7.15002 8.07502 7.15002 6.72502C7.15002 5.37502 7.62086 4.23336 8.56252 3.30002C9.50419 2.36669 10.65 1.90002 12 1.90002C13.35 1.90002 14.4959 2.36669 15.4375 3.30002C16.3792 4.23336 16.85 5.37502 16.85 6.72502C16.85 8.07502 16.3792 9.22086 15.4375 10.1625C14.4959 11.1042 13.35 11.575 12 11.575ZM3.15002 18.125V17.575C3.15002 16.8534 3.33919 16.19 3.71752 15.585C4.09569 14.98 4.59819 14.5184 5.22502 14.2C6.30836 13.6667 7.41636 13.2625 8.54902 12.9875C9.68169 12.7125 10.832 12.575 12 12.575C13.2 12.575 14.3667 12.7084 15.5 12.975C16.6334 13.2417 17.725 13.6417 18.775 14.175C19.4019 14.491 19.9044 14.9492 20.2825 15.5495C20.6609 16.1499 20.85 16.825 20.85 17.575V18.125C20.85 19.0084 20.5459 19.7542 19.9375 20.3625C19.3292 20.9709 18.5834 21.275 17.7 21.275H6.30002C5.41669 21.275 4.67086 20.9709 4.06252 20.3625C3.45419 19.7542 3.15002 19.0084 3.15002 18.125ZM6.30002 18.125H17.7V17.7C17.7 17.5329 17.6542 17.3809 17.5625 17.244C17.4709 17.1074 17.35 17.001 17.2 16.925C16.4 16.5417 15.5667 16.2459 14.7 16.0375C13.8334 15.8292 12.9334 15.725 12 15.725C11.1 15.725 10.2 15.8292 9.30002 16.0375C8.40002 16.2459 7.56669 16.5417 6.80002 16.925C6.65002 17.001 6.52919 17.1074 6.43752 17.244C6.34586 17.3809 6.30002 17.5329 6.30002 17.7V18.125ZM11.999 8.42502C12.4664 8.42502 12.8667 8.25869 13.2 7.92602C13.5334 7.59319 13.7 7.19319 13.7 6.72602C13.7 6.25869 13.5337 5.86252 13.201 5.53752C12.8682 5.21252 12.4682 5.05002 12.001 5.05002C11.5337 5.05002 11.1334 5.21402 10.8 5.54202C10.4667 5.87002 10.3 6.26436 10.3 6.72502C10.3 7.19252 10.4664 7.59278 10.799 7.92578C11.1319 8.25861 11.5319 8.42502 11.999 8.42502Z" fill="#416F8C"/>
</svg>
